<svg xmlns="http://www.w3.org/2000/svg" viewBox="0 0 10.39 68.38"><defs><style>.cls-1{fill:#fefefe;}</style></defs><g id="Capa_2" data-name="Capa 2"><g id="Capa_1-2" data-name="Capa 1"><path class="cls-1" d="M4.2,0h0A4.21,4.21,0,0,1,8.68,4.07a4.38,4.38,0,0,1-1.25,3.3L7,6.94A3.85,3.85,0,0,0,8.12,4.08,3.58,3.58,0,0,0,4.27.65h0A3.61,3.61,0,0,0,.57,4.31,3.83,3.83,0,0,0,2,7.16l-.39.43A4.43,4.43,0,0,1,0,4.3,4.18,4.18,0,0,1,4.2,0Z"/><path class="cls-1" d="M4.44,8.62h0a4.23,4.23,0,0,1,4.46,4.11,4.19,4.19,0,0,1-4.2,4.33h0a4.22,4.22,0,1,1-.27-8.43Zm.23,7.79h0a3.63,3.63,0,0,0,3.67-3.69A3.59,3.59,0,0,0,4.51,9.26h0A3.63,3.63,0,0,0,.81,13,3.6,3.6,0,0,0,4.67,16.41Z"/><path class="cls-1" d="M9,19.06l0,.59-7.14,6,7.31-.21V26l-8.39.24v-.47l7.29-6.12L.59,19.9l0-.6Z"/><path class="cls-1" d="M8.72,30.88,8.64,28l.58,0,.18,6.47-.57,0L8.74,31.5l-7.81.23,0-.63Z"/><path class="cls-1" d="M9.58,38.42V39L1.25,43.17l0-.69,2.32-1.13-.14-5L1,35.4l0-.65ZM4.11,41.07,8.9,38.73,4,36.65Z"/><path class="cls-1" d="M5.45,44h0a4.21,4.21,0,0,1,4.46,4.07,4.39,4.39,0,0,1-1.25,3.3l-.47-.43a3.87,3.87,0,0,0,1.16-2.87,3.59,3.59,0,0,0-3.85-3.43h0a3.62,3.62,0,0,0-3.67,3.66,3.81,3.81,0,0,0,1.39,2.85l-.4.43a4.41,4.41,0,0,1-1.56-3.29A4.17,4.17,0,0,1,5.45,44Z"/><path class="cls-1" d="M9.42,55.42,9.34,52.5l.57,0L10.1,59H9.52l-.08-2.92-7.82.22v-.62Z"/><path class="cls-1" d="M5.9,59.94h0a4.23,4.23,0,0,1,4.46,4.11,4.19,4.19,0,0,1-4.2,4.33h0a4.22,4.22,0,1,1-.27-8.44Zm.23,7.79h0A3.58,3.58,0,1,0,6,60.59H6a3.63,3.63,0,0,0-3.68,3.69A3.59,3.59,0,0,0,6.13,67.73Z"/></g></g></svg>