<svg xmlns="http://www.w3.org/2000/svg" viewBox="0 0 300 300"><defs><style>.cls-1{fill:#e52421;}.cls-2{fill:none;}</style></defs><g id="Capa_2" data-name="Capa 2"><g id="Capa_1-2" data-name="Capa 1"><path class="cls-1" d="M149.77,299.09c-3.9-5.79-7.7-11.24-11.27-16.83a6.52,6.52,0,0,0-5.17-3.21c-39.82-5.67-74.92-38.69-83.06-78a20.19,20.19,0,0,1-.78-4c0-3.89-2-6.13-5.23-8.05-5.1-3-9.91-6.5-15.17-10l10.84-7.23c2.8-1.88,6.39-3.22,8.18-5.8s1.39-6.28,2.25-9.42c11.09-40.76,37.08-66.46,78.28-76.72a6.62,6.62,0,0,1,1.89-.38c5.2.17,8.24-2.59,10.69-6.92,2.62-4.65,5.9-8.93,9.08-13.65,3.9,5.79,7.7,11.24,11.27,16.83a6.5,6.5,0,0,0,5.16,3.21c39.82,5.67,74.92,38.69,83.07,78a20.3,20.3,0,0,1,.77,4c0,3.89,2,6.13,5.24,8.05,5.09,3,9.9,6.5,15.16,10l-10.83,7.23c-2.81,1.88-6.4,3.22-8.19,5.8s-1.39,6.28-2.24,9.42c-11.1,40.76-37.09,66.46-78.29,76.72a7,7,0,0,1-1.88.39c-5.2-.18-8.24,2.58-10.69,6.91C156.22,290.09,153,294.37,149.77,299.09Zm0-2.51c3.15-4.67,6.29-8.77,8.78-13.22,2.17-3.86,5.08-5.37,9.4-6.1,41.94-7,75.71-41.71,81.79-83.77a4.58,4.58,0,0,1,2.28-3.61c4.07-2.59,8-5.31,12.06-8,1.37-.91,2.73-1.84,4.35-2.94-5.84-3.89-11.35-7.48-16.76-11.22a5.3,5.3,0,0,1-1.78-2.81c-1.95-7.18-3-14.71-5.77-21.53-14.53-35.49-41-56.59-78.87-63.29a5.35,5.35,0,0,1-4.19-2.66c-1.45-2.5-3.19-4.83-4.8-7.22l-5.95-8.85c-3.1,4.59-6.23,8.68-8.74,13.11-2.21,3.9-5.14,5.5-9.57,6.22-39.57,6.45-73.28,39.11-80.62,78.45C50.29,165,48.09,168.8,43,171.52c-3.86,2-7.35,4.79-11.24,7.38.9.67,1.51,1.15,2.16,1.58,4.81,3.21,9.68,6.35,14.41,9.68a4.91,4.91,0,0,1,1.89,3A96.45,96.45,0,0,0,64.9,232.49c16.59,25.24,39.86,40.44,69.8,45.34a5.76,5.76,0,0,1,4.38,2.77C142.43,285.87,146,291,149.77,296.58Z"/><path class="cls-1" d="M107.48,73.25,150.23,0c14.26,24.63,28.35,49,42.43,73.32l-.26.28c-.55-.37-1.12-.71-1.65-1.1Q171.4,58.09,152.1,43.61c-1.48-1.12-2.39-1.14-3.9,0Q129,58,109.64,72.2c-.61.46-1.25.87-1.88,1.3Zm79.78-5.1.52-.46L150.23,2.79l-38,65.12.39.34,37.55-27.77Z"/><path class="cls-1" d="M209.65,179.07c.28,32.12-26.38,58.71-59.21,59a59.45,59.45,0,0,1-60-59.24c-.28-32.12,26.39-58.7,59.22-59A59.44,59.44,0,0,1,209.65,179.07Zm-1.36.27a58.14,58.14,0,0,0-58.39-58.13c-32,.12-58.23,26.07-58.12,57.39a58.13,58.13,0,0,0,58.39,58.13C182.12,236.61,208.39,210.66,208.29,179.34Z"/><rect class="cls-2" y="0.91" width="300" height="299.09"/></g></g></svg>